<svg width="23" height="23" viewBox="0 0 23 23" fill="none" xmlns="http://www.w3.org/2000/svg">
<path d="M19.9717 4.41796C19.4822 3.92825 18.901 3.53978 18.2614 3.27475C17.6217 3.00971 16.9361 2.87329 16.2437 2.87329C15.5514 2.87329 14.8658 3.00971 14.2261 3.27475C13.5865 3.53978 13.0053 3.92825 12.5158 4.41796L11.5 5.43379L10.4842 4.41796C9.49546 3.42925 8.15449 2.8738 6.75625 2.8738C5.35801 2.8738 4.01704 3.42925 3.02833 4.41796C2.03963 5.40666 1.48418 6.74763 1.48418 8.14587C1.48418 9.54411 2.03963 10.8851 3.02833 11.8738L11.5 20.3455L19.9717 11.8738C20.4614 11.3843 20.8498 10.8032 21.1149 10.1635C21.3799 9.52386 21.5163 8.83826 21.5163 8.14587C21.5163 7.45349 21.3799 6.76789 21.1149 6.12824C20.8498 5.48859 20.4614 4.90743 19.9717 4.41796Z" fill="#AADB6C"/>
</svg>
