<svg width="38" height="20" viewBox="0 0 38 20" fill="none" xmlns="http://www.w3.org/2000/svg">
<path d="M27.5363 0.171875H9.46839C4.33666 0.171875 0.176575 4.33196 0.176575 9.46369C0.176575 14.5954 4.33666 18.7555 9.46839 18.7555H27.5363C32.668 18.7555 36.8281 14.5954 36.8281 9.46369C36.8281 4.33196 32.668 0.171875 27.5363 0.171875Z" stroke="#576438" stroke-width="0.5" stroke-miterlimit="10"/>
<path d="M27.5363 18.9321H9.46371C4.24636 18.9321 0 14.6857 0 9.46371C0 4.24171 4.24636 0 9.46371 0H27.5316C32.749 0 37 4.24636 37 9.46836C37 14.6904 32.7536 18.9367 27.5316 18.9367L27.5363 18.9321ZM9.46371 0.348443C4.43684 0.348443 0.348443 4.43684 0.348443 9.46371C0.348443 14.4906 4.43684 18.579 9.46371 18.579H27.5316C32.5585 18.579 36.6469 14.4906 36.6469 9.46371C36.6469 4.43684 32.5632 0.348443 27.5363 0.348443H9.46371Z" fill="#576438" stroke="#576438" stroke-width="0.5" stroke-miterlimit="10"/>
<path d="M26.8905 17.1155C22.672 17.1155 19.2433 13.6822 19.2433 9.46833C19.2433 5.25449 22.6767 1.82117 26.8905 1.82117C31.1043 1.82117 34.5377 5.25449 34.5377 9.46833C34.5377 13.6822 31.1043 17.1155 26.8905 17.1155ZM26.8905 2.02094C22.7882 2.02094 19.4478 5.36135 19.4478 9.46368C19.4478 13.566 22.7882 16.9064 26.8905 16.9064C30.9928 16.9064 34.3333 13.566 34.3333 9.46368C34.3333 5.36135 30.9928 2.02094 26.8905 2.02094Z" fill="#576438" stroke="#576438" stroke-width="0.5" stroke-miterlimit="10"/>
<path d="M33.2043 5.3567C33.7246 6.15115 34.1335 6.98276 34.1056 7.9677C33.9848 7.92124 33.864 7.87942 33.6363 7.79115C34.0638 8.60883 33.5295 9.05019 33.2043 9.49155C33.3715 9.52872 33.497 9.5566 33.6271 9.58447C33.5759 9.96544 33.6271 10.3975 33.1903 10.6159C32.8837 10.6856 32.5771 10.7506 32.2704 10.8203C32.2704 10.6856 32.2704 10.5508 32.2704 10.4114C32.4052 9.86323 32.5771 9.31965 32.6561 8.76215C32.6839 8.57166 32.7954 8.19999 32.3773 8.14889C32.3494 7.98628 32.3169 7.82832 32.2844 7.63784C32.8605 7.92588 32.6235 7.44735 32.6793 7.23829C33.2368 6.72259 32.67 6.31375 32.5771 5.97925C32.814 5.74231 33.0091 5.54718 33.2043 5.35205V5.3567ZM33.2647 6.50888H33.2043C33.2043 6.58322 33.2136 6.65755 33.2182 6.73188C33.2321 6.73188 33.2507 6.73188 33.2647 6.73188V6.50888Z" fill="#576438" stroke="#576438" stroke-width="0.5" stroke-miterlimit="10"/>
<path d="M23.4479 3.8607C23.7545 3.8607 23.9357 3.95362 24.0101 4.316C24.0565 4.54365 24.3399 4.7109 24.4979 4.91997C24.6047 5.05934 24.7441 5.24518 24.4096 5.29628C24.2563 5.29628 24.0937 5.25912 23.9543 5.30093C23.6198 5.41243 23.2435 5.51929 23.4711 6.0164V6.00711C23.434 6.03963 23.3968 6.07215 23.3596 6.10932C23.2017 6.15578 23.0391 6.19759 22.8718 6.24405C22.909 5.70977 22.6581 5.52858 22.0216 5.58898C21.9194 5.71442 21.8219 5.83986 21.6267 6.08144C21.3387 5.733 21.0646 5.40314 20.7951 5.07793C20.7951 4.99895 20.7951 4.91532 20.7951 4.83634C21.1389 4.43679 21.4781 4.03724 21.8219 3.6377C21.9705 3.93968 22.1192 4.24166 22.2957 4.60404C22.4351 4.39962 22.4909 4.316 22.542 4.23702C22.6535 4.54365 22.7696 4.85028 22.9183 5.24983C23.0623 4.91532 23.1599 4.5994 23.3318 4.32994C23.4293 4.17197 23.722 4.09764 23.355 3.93039C23.3875 3.90716 23.42 3.87928 23.4479 3.85605V3.8607Z" fill="#576438" stroke="#576438" stroke-width="0.5" stroke-miterlimit="10"/>
<path d="M33.2043 5.35669C33.0092 5.55182 32.8141 5.74695 32.5771 5.98389C32.67 6.31375 33.2322 6.72259 32.6793 7.24293C32.5585 6.92701 32.4424 6.60644 32.3216 6.29052C32.2658 6.16508 32.2054 6.03964 32.1497 5.90955C32.2101 5.8538 32.3355 5.77482 32.3216 5.75159C32.145 5.35669 31.9499 4.96644 31.7641 4.57153C31.7269 4.50649 31.6897 4.4368 31.6572 4.37176C31.6293 4.15805 31.7687 3.84677 31.3552 3.85606C31.2856 3.78637 31.2205 3.72133 31.1508 3.65164C31.1137 3.61912 31.0811 3.58195 31.044 3.54943C31.044 3.48439 31.044 3.4147 31.044 3.34966C30.9743 3.27997 30.9046 3.21493 30.8349 3.14524C30.8349 3.11272 30.8349 3.07555 30.8349 3.04303C30.9603 3.0802 31.1044 3.08484 31.2066 3.15453C32.0289 3.74921 32.7304 4.45074 33.209 5.35669H33.2043Z" fill="#576438" stroke="#576438" stroke-width="0.5" stroke-miterlimit="10"/>
<path d="M22.542 4.24632C22.4862 4.3253 22.4305 4.40892 22.2957 4.61334C22.1192 4.25096 21.9705 3.94898 21.8218 3.647C22.1842 3.40541 22.5466 3.16382 22.909 2.92688C22.9508 2.96405 22.9973 3.00121 23.0391 3.03838C23.0762 3.04767 23.1134 3.05697 23.1459 3.0709C23.1459 3.08949 23.1459 3.10342 23.1459 3.12201V3.13595C23.0484 3.15918 22.9601 3.18705 22.8718 3.21028C22.8811 3.2428 22.8857 3.27068 22.895 3.3032C22.974 3.28926 23.053 3.27532 23.1366 3.25674L23.5641 3.2428C23.6291 3.2428 23.6941 3.25209 23.7638 3.25674L23.8056 3.26139H23.8475C23.7174 3.46116 23.5826 3.66558 23.4526 3.86535C23.42 3.88858 23.3875 3.91646 23.3596 3.93969C23.0902 4.0419 22.8161 4.14411 22.5466 4.24632H22.542Z" fill="#576438" stroke="#576438" stroke-width="0.5" stroke-miterlimit="10"/>
<path d="M30.8303 3.03839C30.8303 3.07091 30.8303 3.10808 30.8303 3.1406C30.6956 3.51692 30.5608 3.88859 30.4214 4.26491C30.3889 4.26491 30.3564 4.26491 30.3239 4.26491C30.2542 4.06049 30.1845 3.85607 30.1148 3.647C30.152 3.61448 30.1845 3.58196 30.2217 3.54944C30.231 3.5355 30.2356 3.51692 30.2449 3.50298C30.2356 3.51692 30.2263 3.53086 30.217 3.54479C30.1845 3.58196 30.152 3.61448 30.1195 3.65165C30.0498 3.58196 29.9847 3.51692 29.915 3.44723C29.9801 3.37289 30.0498 3.30321 30.1148 3.23352C30.2588 3.13131 30.4075 3.02445 30.5515 2.92224C30.6444 2.95941 30.742 3.00122 30.8349 3.03839H30.8303Z" fill="#576438" stroke="#576438" stroke-width="0.5" stroke-miterlimit="10"/>
<path d="M31.6526 4.37177C31.6897 4.43681 31.7269 4.5065 31.7594 4.57154C31.3645 4.7899 31.0951 5.47285 31.2391 5.97461C31.3088 5.79806 31.3645 5.65869 31.4296 5.48679C31.4853 5.59364 31.5132 5.64939 31.5411 5.70514C31.5318 5.87704 31.5225 6.04894 31.5132 6.22084C31.3459 6.2069 31.1787 6.19297 30.9185 6.17438C31.0579 6.33234 31.1415 6.42526 31.2251 6.51818L31.1322 6.75047C31.0951 6.70401 31.0625 6.6622 31.0254 6.61574C30.9278 6.5507 30.8302 6.48101 30.728 6.41597C30.728 6.3184 30.7234 6.21619 30.7187 6.11863C31.0532 5.71444 30.9975 5.57971 30.4028 5.4775C30.3703 5.61687 30.3378 5.7609 30.3099 5.90492C30.2356 5.97925 30.1612 6.04894 30.0869 6.12328C29.6966 6.45314 29.311 6.78764 28.9254 7.11286C29.009 7.12679 29.1159 7.16861 29.2042 7.15002C29.4736 7.08963 29.7338 7.00135 29.9986 6.92237C30.1287 6.92237 30.2634 6.93166 30.3935 6.93631C30.4307 7.0664 30.4725 7.19648 30.5097 7.32192L30.9232 7.53099C31.0254 7.5728 31.1229 7.61461 31.2251 7.65643C31.1462 7.71218 31.0672 7.81903 30.9836 7.81903C30.742 7.81903 30.505 7.78187 30.4121 7.77722C30.3703 8.11172 30.4168 8.56702 30.2913 8.61813C29.7477 8.85042 29.6177 9.36612 29.3296 9.77496C29.2042 9.95615 29.0787 10.1327 28.9486 10.3185C28.9858 10.43 29.0276 10.5648 29.0694 10.7041C28.9765 10.6763 28.879 10.653 28.786 10.6252C28.7489 10.588 28.7071 10.5462 28.6699 10.509C28.563 10.4114 28.4608 10.3185 28.354 10.221V10.2117C27.9265 9.69133 27.9777 9.09201 28.0613 8.4834C28.275 8.0792 28.7675 7.81903 28.6745 7.26152C28.6234 6.95025 28.5816 6.63433 28.5352 6.3184C28.7582 6.035 29.009 5.71444 29.2599 5.39387C29.2971 5.32883 29.3343 5.25914 29.3714 5.1941C29.4783 5.09653 29.5898 4.99432 29.6966 4.89676C29.7663 4.85959 29.8314 4.82242 29.9011 4.78526C29.9011 4.71557 29.9011 4.64588 29.9011 4.57619C29.9382 4.57154 29.98 4.5669 30.0172 4.56225C30.0869 4.62265 30.1566 4.68769 30.2309 4.74809C30.2588 4.80849 30.2913 4.86888 30.3192 4.92928C30.3471 4.81313 30.3749 4.70163 30.4028 4.58548L30.4168 4.56225C30.4493 4.50186 30.4772 4.43681 30.5097 4.37642C30.6026 4.38106 30.6955 4.39035 30.6583 4.38571C30.7931 4.0001 30.9046 3.67488 31.0207 3.34967C31.0207 3.41471 31.0207 3.4844 31.0207 3.54944C31.0579 3.58197 31.0904 3.61913 31.1276 3.65165C31.1973 3.72134 31.2623 3.78639 31.332 3.85607C31.2716 4.00939 31.2158 4.15806 31.1555 4.31137C31.3134 4.32996 31.476 4.35319 31.634 4.37177H31.6526ZM28.7907 9.98403C28.8186 9.94686 28.8464 9.90969 28.8743 9.87717C28.8 9.83071 28.7303 9.77961 28.656 9.73315L28.6002 9.80748C28.6652 9.86788 28.7256 9.92827 28.7907 9.98867V9.98403Z" fill="#576438" stroke="#576438" stroke-width="0.5" stroke-miterlimit="10"/>
<path d="M24.4839 10.6066C24.5211 10.7134 24.5536 10.8156 24.5908 10.9225C24.1866 11.4475 23.7081 11.8145 22.9926 11.7541C22.7649 11.7355 22.5977 11.7448 22.4908 11.4568C22.4351 11.2988 22.1238 11.2384 21.9287 11.1316C21.8962 11.0944 21.8636 11.0572 21.8311 11.0201H21.8358C21.8636 10.955 21.8869 10.89 21.9147 10.8249C21.9751 10.6902 22.0448 10.5601 22.0913 10.4207C22.1517 10.2256 22.1981 10.0212 22.2492 9.82141C22.6813 9.8911 23.118 9.95614 23.5501 10.0258C23.7545 10.1652 23.9589 10.3046 24.168 10.444C24.2749 10.4951 24.3817 10.5508 24.4886 10.6019L24.4839 10.6066Z" fill="#576438" stroke="#576438" stroke-width="0.5" stroke-miterlimit="10"/>
<path d="M29.915 4.57618C29.915 4.64586 29.915 4.71555 29.915 4.78524C29.8825 4.78524 29.8453 4.78059 29.8128 4.77595C29.6966 4.62728 29.6781 4.33923 29.3714 4.48326C29.2925 4.29742 29.1206 4.093 29.1577 3.93504C29.3575 3.02909 29.3761 3.03373 29.7013 3.14524C29.692 3.19634 29.6827 3.24745 29.6734 3.29855C29.7199 3.25209 29.7663 3.21028 29.8128 3.16382C29.8453 3.18705 29.8825 3.21028 29.915 3.23815C29.915 3.30784 29.915 3.38218 29.915 3.45187C29.8593 3.49832 29.7524 3.55408 29.757 3.59589C29.7989 3.92575 29.8593 4.25096 29.915 4.57618Z" fill="#576438" stroke="#576438" stroke-width="0.5" stroke-miterlimit="10"/>
<path d="M22.3329 7.23364C22.3003 7.30332 22.2678 7.37301 22.2353 7.4427C22.2167 7.47058 22.2121 7.49845 22.2167 7.52633C22.2167 7.52633 22.2167 7.52633 22.2214 7.52633C22.1935 7.56814 22.161 7.60531 22.1331 7.64712C22.1331 7.7865 22.1331 7.92123 22.1331 8.06061C22.0634 8.09313 21.9937 8.12565 21.9287 8.15817C21.7196 7.99092 21.9751 7.37766 21.3433 7.60531C20.9623 7.74004 20.586 8.20928 20.7161 8.60882C20.7393 8.68316 20.9437 8.72033 21.0645 8.72497C21.1621 8.72497 21.2643 8.65993 21.3665 8.62276C21.3386 8.71568 21.3108 8.81324 21.2782 8.90616C21.2597 8.96656 21.2271 9.02231 21.1946 9.092C21.3479 9.16169 21.478 9.22208 21.6128 9.28248C21.6174 9.42186 21.6267 9.55659 21.6313 9.69597C21.5942 9.79353 21.557 9.89109 21.5198 9.98866C21.4455 9.85393 21.3712 9.71919 21.2922 9.58446C21.2643 9.55194 21.2318 9.51942 21.2039 9.4869C20.9623 9.32429 20.7207 9.16169 20.4792 9.00373C20.3816 8.6878 20.2887 8.36724 20.1772 8.05596C20.1493 7.97233 20.0564 7.90729 19.9913 7.8376C20.0146 6.84803 20.1028 5.87703 20.7904 5.08258C21.0599 5.40779 21.334 5.73765 21.622 6.0861C21.8172 5.84451 21.9147 5.71907 22.0169 5.59363C22.0495 5.66796 22.0959 5.73765 22.1052 5.81663C22.1238 5.94672 22.1145 6.08145 22.1192 6.21154C22.161 6.31375 22.2121 6.41131 22.2492 6.51352C22.2818 6.61573 22.3003 6.72259 22.3236 6.8248C22.3236 6.95953 22.3236 7.0989 22.3236 7.23364H22.3329Z" fill="#576438" stroke="#576438" stroke-width="0.5" stroke-miterlimit="10"/>
<path d="M26.6397 3.647C26.4399 3.72133 26.2401 3.79567 26.045 3.86536C26.0218 3.90717 25.9939 3.94434 25.9707 3.98615H25.9521C25.8777 4.10694 25.8034 4.22774 25.7198 4.35782C25.3156 4.17199 25.3249 3.86071 25.4132 3.48904C25.4968 3.14989 25.8406 2.79215 25.4178 2.42977C25.4085 2.42513 25.6036 2.06275 25.7477 2.02093C26.0589 1.92801 26.4027 1.93731 26.7326 1.90479C26.872 2.10921 27.0113 2.30898 27.1507 2.5134C27.1507 2.58309 27.1461 2.65278 27.1414 2.72246C26.9231 2.90366 26.8534 3.10343 27.0717 3.33572C27.0578 3.36825 27.0392 3.40077 27.0253 3.43329C26.9231 3.50298 26.8162 3.56802 26.714 3.63771C26.6861 3.63771 26.6629 3.63771 26.635 3.63771L26.6397 3.647Z" fill="#576438" stroke="#576438" stroke-width="0.5" stroke-miterlimit="10"/>
<path d="M22.1238 6.21154C22.1238 6.08146 22.1238 5.94672 22.1099 5.81664C22.1006 5.73766 22.0495 5.66797 22.0216 5.59364C22.6627 5.53324 22.909 5.71443 22.8718 6.24871C23.0391 6.20225 23.2017 6.15579 23.3596 6.11398C23.2295 6.65755 22.7324 6.67149 22.3329 6.8248C22.3097 6.72259 22.2911 6.61573 22.2585 6.51352C22.226 6.41131 22.1749 6.31375 22.1285 6.21619C22.1378 6.20225 22.1424 6.18831 22.1517 6.16973C22.1424 6.18367 22.1331 6.1976 22.1285 6.21154H22.1238Z" fill="#576438" stroke="#576438" stroke-width="0.5" stroke-miterlimit="10"/>
<path d="M24.2795 2.6853C24.5164 2.70389 24.6883 2.77357 24.693 3.07091C24.693 3.24746 24.7766 3.41936 24.8323 3.62842C24.6744 3.63771 24.5118 3.64701 24.3166 3.66094C24.3027 3.49369 24.2888 3.34967 24.2748 3.201C24.1726 3.21494 24.0751 3.22887 23.9775 3.24281C23.9775 3.12202 23.9728 3.00587 23.9682 2.88508C24.0704 2.82003 24.1726 2.75035 24.2702 2.6853H24.2795Z" fill="#576438" stroke="#576438" stroke-width="0.5" stroke-miterlimit="10"/>
<path d="M23.4665 6.02569C23.2435 5.52858 23.6198 5.41708 23.9496 5.31022C24.0844 5.26376 24.2516 5.30093 24.4049 5.30558C24.312 5.39849 24.1773 5.58433 24.1262 5.5611C23.7081 5.40779 23.6709 5.6122 23.7081 5.94206C23.7081 5.96065 23.5501 5.99782 23.4665 6.02569Z" fill="#576438" stroke="#576438" stroke-width="0.5" stroke-miterlimit="10"/>
<path d="M23.3085 2.84329C23.3318 2.77825 23.3503 2.71785 23.3736 2.65281C23.4897 2.64352 23.6059 2.63887 23.722 2.62958C23.7081 2.6621 23.6895 2.68997 23.6756 2.7225C23.7081 2.834 23.7452 2.94085 23.7778 3.05236L23.7545 3.25213C23.6895 3.25213 23.6245 3.24284 23.5548 3.23819C23.5501 3.12669 23.5455 3.01983 23.5408 2.90833C23.4618 2.8851 23.3829 2.86187 23.3085 2.83864V2.84329Z" fill="#576438" stroke="#576438" stroke-width="0.5" stroke-miterlimit="10"/>
<path d="M23.7777 3.05233C23.7452 2.94083 23.7081 2.83397 23.6755 2.72247C23.8753 2.70853 24.0797 2.69924 24.2795 2.6853C24.1773 2.75035 24.0751 2.82003 23.9775 2.88508C23.9125 2.94083 23.8474 2.99658 23.7824 3.05233H23.7777Z" fill="#576438" stroke="#576438" stroke-width="0.5" stroke-miterlimit="10"/>
<path d="M30.5097 13.4824C30.519 13.278 30.5283 13.0736 30.5376 12.8738C30.5887 13.0132 30.6351 13.1526 30.7327 13.4313C31.2159 12.5579 31.6387 11.796 32.0614 11.034C32.0614 11.0015 32.0614 10.969 32.0614 10.9365C32.1265 10.8993 32.1962 10.8621 32.2612 10.8296C32.5678 10.7599 32.8745 10.6949 33.1811 10.6252C32.8698 11.0898 32.6886 11.5915 32.7583 12.1583C32.1822 12.8366 31.6015 13.5149 31.0254 14.1932C30.8628 14.2258 30.7002 14.2629 30.5376 14.2954V14.2862C30.4958 14.091 30.4632 13.8959 30.4307 13.6961C30.454 13.6264 30.4772 13.5521 30.5051 13.4824H30.5097Z" fill="#576438" stroke="#576438" stroke-width="0.5" stroke-miterlimit="10"/>
<path d="M31.2391 7.65641C31.1369 7.6146 31.0393 7.57278 30.9371 7.53097C31.2437 7.49845 31.5504 7.46128 31.857 7.42876C32.0243 7.34978 32.1962 7.2708 32.3634 7.19182C32.2194 7.07102 32.08 6.94559 31.9313 6.82944C31.8152 6.74117 31.6898 6.66219 31.569 6.57856C31.6898 6.46241 31.792 6.30445 31.936 6.23476C32.0382 6.1883 32.1915 6.26264 32.3262 6.28122C32.447 6.59714 32.5632 6.91771 32.684 7.23363C32.6282 7.4427 32.8652 7.91658 32.2891 7.63318C32.3216 7.82366 32.3541 7.98627 32.382 8.14423C32.3355 8.26967 32.3123 8.40905 32.238 8.5159C31.9639 8.92474 31.6572 9.315 31.3924 9.73313C31.123 10.1513 30.886 10.588 30.6351 11.02C30.6119 10.9875 30.5933 10.955 30.5701 10.9225C30.6351 10.2953 30.1055 10.5136 29.8128 10.3928C30.519 9.51477 31.3274 8.70638 31.6015 7.48916C31.5039 7.53097 31.3738 7.59137 31.2484 7.65176L31.2391 7.65641Z" fill="#576438" stroke="#576438" stroke-width="0.5" stroke-miterlimit="10"/>
<path d="M30.6258 11.0294C30.8767 10.602 31.1136 10.1606 31.3831 9.74246C31.6479 9.32898 31.9545 8.93872 32.2286 8.52524C32.303 8.41838 32.3262 8.279 32.3727 8.15356C32.7908 8.20467 32.6793 8.58099 32.6514 8.76682C32.5724 9.32433 32.4005 9.8679 32.2658 10.4161C32.1032 10.444 31.9406 10.4765 31.7408 10.5137C31.8802 10.6949 31.9731 10.8157 32.066 10.9318C32.066 10.9643 32.066 10.9969 32.066 11.0294C31.3598 10.6949 31.3924 11.6241 30.9092 11.7123C30.8116 11.4754 30.7234 11.2524 30.6304 11.0247L30.6258 11.0294Z" fill="#576438" stroke="#576438" stroke-width="0.5" stroke-miterlimit="10"/>
<path d="M32.0661 10.9318C31.9731 10.8156 31.8849 10.6948 31.7408 10.5136C31.9406 10.4765 32.1032 10.444 32.2658 10.4161C32.2658 10.5508 32.2658 10.6855 32.2658 10.8249C32.2008 10.8621 32.1311 10.8993 32.0661 10.9318Z" fill="#576438" stroke="#576438" stroke-width="0.5" stroke-miterlimit="10"/>
<path d="M21.9241 11.1316C22.1192 11.2384 22.4305 11.2988 22.4862 11.4568C22.5931 11.7448 22.7603 11.7355 22.988 11.7541C23.7035 11.8191 24.182 11.4475 24.5862 10.9225C25.1019 11.1687 25.6176 11.4103 26.1333 11.6565C26.2308 11.703 26.3145 11.7773 26.4027 11.8377C25.9521 12.2048 25.7477 12.7019 25.6873 13.2687C25.5339 13.3105 25.3806 13.3523 25.2273 13.3941C24.9764 13.5288 24.7256 13.6636 24.5676 13.7472C24.4793 13.8773 24.4375 13.9934 24.3818 14.0027C24.0473 14.0492 23.7081 14.0678 23.3689 14.1003C23.3318 14.0678 23.2993 14.0306 23.2621 13.9981C23.1785 13.4313 23.2063 12.832 22.5699 12.4882C22.3887 12.3906 22.3236 12.07 22.2075 11.8517C22.1238 11.7773 22.0356 11.7076 21.9519 11.6333C21.9427 11.4661 21.9334 11.2988 21.9241 11.1316Z" fill="#576438" stroke="#576438" stroke-width="0.5" stroke-miterlimit="10"/>
<path d="M31.5457 5.70513C31.5178 5.64938 31.4853 5.59363 31.4342 5.48678C31.3692 5.65868 31.3134 5.79805 31.2437 5.9746C31.0997 5.47284 31.3645 4.79454 31.7641 4.57153C31.9546 4.96179 32.145 5.35205 32.3216 5.75159C32.3309 5.77482 32.2101 5.85845 32.1497 5.90955C31.9499 5.83987 31.7501 5.77018 31.5504 5.70513H31.5457Z" fill="#576438" stroke="#576438" stroke-width="0.5" stroke-miterlimit="10"/>
<path d="M31.0347 3.34968C30.9232 3.6749 30.807 4.00011 30.6723 4.38572C30.7094 4.38572 30.6165 4.38107 30.5236 4.37178C30.4864 4.33926 30.4539 4.30209 30.4167 4.26957C30.5515 3.89325 30.6862 3.52158 30.8256 3.14526C30.8953 3.21495 30.965 3.27999 31.0347 3.34968Z" fill="#576438" stroke="#576438" stroke-width="0.5" stroke-miterlimit="10"/>
<path d="M31.6525 4.3718C31.4946 4.35322 31.332 4.32999 31.174 4.3114C31.2344 4.15809 31.2902 4.00942 31.3506 3.8561C31.764 3.84217 31.6247 4.15344 31.6525 4.3718Z" fill="#576438" stroke="#576438" stroke-width="0.5" stroke-miterlimit="10"/>
<path d="M23.3689 14.0956C23.708 14.0678 24.0472 14.0445 24.3817 13.9981C24.4375 13.9888 24.4746 13.8726 24.5675 13.7426C24.7255 13.6589 24.9764 13.5242 25.2273 13.3895C25.0832 13.6914 24.9392 13.9934 24.7998 14.3001C24.772 14.3233 24.7627 14.3465 24.7673 14.3837H24.758C24.5768 14.5045 24.3306 14.5835 24.2284 14.7554C24.0193 15.0945 24.2563 15.3686 24.4746 15.6241C24.3724 15.6334 24.2702 15.6427 24.168 15.652C23.6848 15.2432 23.4711 14.6996 23.3689 14.0956Z" fill="#576438" stroke="#576438" stroke-width="0.5" stroke-miterlimit="10"/>
<path d="M23.5408 2.90833C23.5455 3.01983 23.5501 3.12668 23.5547 3.23818C23.4107 3.24283 23.2713 3.24748 23.1273 3.25212C23.1273 3.21031 23.1273 3.1685 23.132 3.13133L23.1366 3.11739C23.2713 3.0477 23.4014 2.97801 23.5362 2.90833H23.5408Z" fill="#576438" stroke="#576438" stroke-width="0.5" stroke-miterlimit="10"/>
<path d="M23.5408 2.9083C23.4061 2.97799 23.276 3.04768 23.1413 3.11737C23.1413 3.09879 23.1413 3.08485 23.1413 3.06627C23.1785 3.02445 23.2156 2.98728 23.2482 2.94547C23.2667 2.91295 23.2853 2.87578 23.2993 2.84326C23.3782 2.86649 23.4572 2.88972 23.5316 2.91295L23.5408 2.9083Z" fill="#576438" stroke="#576438" stroke-width="0.5" stroke-miterlimit="10"/>
<path d="M29.915 4.57621C29.8593 4.251 29.7989 3.92114 29.757 3.59593C29.7524 3.55411 29.8593 3.50301 29.915 3.4519C29.9847 3.52159 30.0497 3.58664 30.1194 3.65632C30.1891 3.86074 30.2588 4.06516 30.3285 4.27423C30.2309 4.37179 30.1334 4.46936 30.0358 4.56228C29.9986 4.56692 29.9568 4.57157 29.9196 4.57621H29.915Z" fill="#576438" stroke="#576438" stroke-width="0.5" stroke-miterlimit="10"/>
<path d="M30.0311 4.56228C30.1287 4.46471 30.2263 4.36715 30.3238 4.27423C30.3563 4.27423 30.3889 4.27423 30.4214 4.27423C30.4586 4.30675 30.4911 4.34392 30.5282 4.37644C30.4957 4.43684 30.4678 4.50188 30.4353 4.56228L30.4214 4.58551C30.3656 4.64126 30.3052 4.69236 30.2495 4.74811C30.1798 4.68772 30.1101 4.62267 30.0358 4.56228H30.0311Z" fill="#576438" stroke="#576438" stroke-width="0.5" stroke-miterlimit="10"/>
<path d="M29.39 10.6159C29.2878 10.6438 29.1856 10.6716 29.0834 10.6995C29.0416 10.5648 28.9951 10.4254 28.9626 10.3139C29.0927 10.1281 29.2135 9.95153 29.3435 9.77034C29.6316 9.3615 29.7663 8.8458 30.3053 8.61351C30.4307 8.55776 30.3842 8.1071 30.426 7.7726C30.5143 7.78189 30.7559 7.81906 30.9975 7.81441C31.0765 7.81441 31.1555 7.70755 31.2391 7.6518C31.3692 7.59141 31.4946 7.53566 31.5922 7.4892C31.3227 8.70178 30.5097 9.51017 29.8035 10.3929C29.6641 10.4672 29.5294 10.5369 29.39 10.6112V10.6159Z" fill="#576438" stroke="#576438" stroke-width="0.5" stroke-miterlimit="10"/>
<path d="M30.3192 5.9049C30.3517 5.76088 30.3843 5.61686 30.4121 5.47748C31.0022 5.57969 31.0626 5.71442 30.7281 6.11861C30.5933 6.04892 30.4539 5.97459 30.3192 5.9049Z" fill="#576438" stroke="#576438" stroke-width="0.5" stroke-miterlimit="10"/>
<path d="M30.3192 5.90491C30.4539 5.9746 30.5933 6.04893 30.728 6.11862C30.728 6.21618 30.7327 6.31839 30.7373 6.41596C30.7002 6.44383 30.663 6.47635 30.6258 6.50423V6.54604C30.4493 6.40667 30.2727 6.26264 30.0962 6.12326C30.1705 6.04893 30.2449 5.97924 30.3192 5.90491Z" fill="#576438" stroke="#576438" stroke-width="0.5" stroke-miterlimit="10"/>
<path d="M31.5178 6.22083C31.4203 6.32304 31.3274 6.4206 31.2298 6.52281C31.1462 6.42989 31.0625 6.33698 30.9232 6.17902C31.1787 6.1976 31.3459 6.21154 31.5178 6.22547V6.22083Z" fill="#576438" stroke="#576438" stroke-width="0.5" stroke-miterlimit="10"/>
<path d="M30.6258 6.50423C30.663 6.47635 30.7001 6.44383 30.7373 6.41595C30.8349 6.481 30.9324 6.55069 31.0346 6.61573C30.8999 6.57856 30.7652 6.54139 30.6304 6.50423H30.6258Z" fill="#576438" stroke="#576438" stroke-width="0.5" stroke-miterlimit="10"/>
<path d="M28.7907 9.98404C28.7257 9.92364 28.6653 9.86325 28.6002 9.80285L28.656 9.72852C28.7303 9.77497 28.8 9.82608 28.8743 9.87254C28.8465 9.90971 28.8186 9.94687 28.7907 9.97939V9.98404Z" fill="#576438" stroke="#576438" stroke-width="0.5" stroke-miterlimit="10"/>
<path d="M30.2402 4.74812C30.2959 4.69237 30.3563 4.64126 30.4121 4.58551C30.3842 4.70166 30.3563 4.81316 30.3284 4.92931C30.3006 4.86891 30.268 4.80851 30.2402 4.74812Z" fill="#576438" stroke="#576438" stroke-width="0.5" stroke-miterlimit="10"/>
<path d="M30.6305 11.5264C30.6072 11.3267 30.584 11.1269 30.5608 10.9318C30.584 10.9643 30.6026 10.9968 30.6258 11.0293C30.7187 11.257 30.8116 11.4846 30.9046 11.7169C31.3877 11.624 31.3552 10.6995 32.0614 11.034C31.6386 11.7959 31.2158 12.5578 30.7327 13.4313C30.6351 13.1525 30.584 13.0131 30.5375 12.8738C30.5793 12.6879 30.649 12.4974 30.663 12.3116C30.6769 12.0514 30.6444 11.7913 30.6351 11.5311L30.6305 11.5264Z" fill="#576438" stroke="#576438" stroke-width="0.5" stroke-miterlimit="10"/>
</svg>
